<svg xmlns="http://www.w3.org/2000/svg" xmlns:xlink="http://www.w3.org/1999/xlink" version="1.1" width="1081.1644pt" height="395.65095pt" viewBox="0 0 1081.1644 395.65095">
<defs>
<g id="font_0_48">
<path transform="matrix(.001,0,0,.001,0,0)" d="M318 664C267 664 229 639 203 589 177 539 165 464 165 364 165 264 177 189 203 139 229 89 267 64 318 64 369 64 407 89 433 139 458 189 471 264 471 364 471 464 458 539 433 589 407 639 369 664 318 664ZM318 742C399 742 461 709 505 645 548 580 570 486 570 364 570 241 548 147 505 83 461 19 399-13 317-13 235-13 173 19 130 83 87 147 66 241 66 364 66 486 87 580 130 645 173 709 236 742 318 742Z"/>
</g>
<g id="font_0_46">
<path transform="matrix(.001,0,0,.001,0,0)" d="M107 124H210V0H107V124Z"/>
</g>
<g id="font_0_50">
<path transform="matrix(.001,0,0,.001,0,0)" d="M192 83H536V0H73V83C110 121 161 173 226 239 290 304 331 346 348 365 380 400 402 430 414 455 426 479 433 504 433 528 433 566 419 598 392 622 365 646 330 659 286 659 255 659 222 653 188 643 154 632 117 616 78 594V694C118 710 155 722 189 730 223 738 255 742 284 742 359 742 419 723 464 685 509 647 532 597 532 534 532 504 526 475 515 449 504 422 484 390 454 354 446 344 420 317 376 272 332 227 271 164 192 83Z"/>
</g>
<g id="font_0_52">
<path transform="matrix(.001,0,0,.001,0,0)" d="M378 643 129 254H378V643ZM352 729H476V254H580V172H476V0H378V172H49V267L352 729Z"/>
</g>
<g id="font_0_54">
<path transform="matrix(.001,0,0,.001,0,0)" d="M330 404C286 404 251 388 225 358 199 328 186 286 186 234 186 181 199 139 225 109 251 79 286 64 330 64 374 64 409 79 435 109 461 139 474 181 474 234 474 286 461 328 435 358 409 388 374 404 330 404ZM526 713V623C501 635 476 644 451 650 425 656 400 659 376 659 310 659 260 637 226 593 192 549 172 482 168 394 187 422 211 444 240 459 269 474 301 482 336 482 409 482 467 459 509 415 551 371 573 310 573 234 573 159 550 99 506 54 462 9 403-13 330-13 246-13 181 19 137 83 92 147 70 241 70 364 70 479 97 571 152 639 206 707 280 742 372 742 396 742 421 739 447 735 472 730 498 723 526 713Z"/>
</g>
<g id="font_0_56">
<path transform="matrix(.001,0,0,.001,0,0)" d="M318 346C271 346 234 333 207 308 180 283 167 249 167 205 167 161 180 126 207 101 234 76 271 64 318 64 364 64 401 76 428 102 455 127 469 161 469 205 469 249 455 283 429 308 402 333 365 346 318 346ZM219 388C177 398 144 418 120 447 96 476 85 511 85 553 85 611 105 657 147 691 188 725 245 742 318 742 390 742 447 725 489 691 530 657 551 611 551 553 551 511 539 476 515 447 491 418 459 398 417 388 464 377 501 355 528 323 554 291 568 251 568 205 568 134 546 80 503 43 459 5 397-13 317-13 237-13 175 5 132 43 89 80 68 134 68 205 68 251 81 291 108 323 134 355 171 377 219 388ZM183 544C183 506 194 476 218 455 242 434 275 424 318 424 360 424 393 434 417 455 441 476 453 506 453 544 453 582 441 611 417 632 393 653 360 664 318 664 275 664 242 653 218 632 194 611 183 582 183 544Z"/>
</g>
<g id="font_0_49">
<path transform="matrix(.001,0,0,.001,0,0)" d="M124 83H285V639L110 604V694L284 729H383V83H544V0H124V83Z"/>
</g>
<g id="font_0_78">
<path transform="matrix(.001,0,0,.001,0,0)" d="M98 729H231L554 119V729H650V0H517L194 610V0H98V729Z"/>
</g>
<g id="font_0_111">
<path transform="matrix(.001,0,0,.001,0,0)" d="M306 484C258 484 220 465 192 427 164 389 150 338 150 273 150 207 163 156 191 118 219 80 257 62 306 62 354 62 392 80 420 118 448 156 462 207 462 273 462 337 448 389 420 427 392 465 354 484 306 484ZM306 560C384 560 445 534 490 484 534 433 557 363 557 273 557 183 534 113 490 63 445 12 384-13 306-13 227-13 165 12 121 63 77 113 55 183 55 273 55 363 77 433 121 484 165 534 227 560 306 560Z"/>
</g>
<g id="font_0_114">
<path transform="matrix(.001,0,0,.001,0,0)" d="M411 463C401 469 390 473 378 476 366 478 353 480 339 480 288 480 249 463 222 430 194 397 181 350 181 288V0H91V547H181V462C199 495 224 520 254 536 284 552 321 560 365 560 371 560 378 559 386 559 393 558 401 557 411 555V463Z"/>
</g>
<g id="font_0_109">
<path transform="matrix(.001,0,0,.001,0,0)" d="M520 442C542 482 569 511 600 531 631 550 668 560 711 560 767 560 811 540 842 500 873 460 889 403 889 330V0H799V327C799 379 789 418 771 444 752 469 724 482 686 482 639 482 602 466 575 435 548 404 535 362 535 309V0H445V327C445 379 435 418 417 444 398 469 369 482 331 482 285 482 248 466 221 435 194 404 181 362 181 309V0H91V547H181V462C201 495 226 520 255 536 283 552 317 560 357 560 397 560 430 550 458 530 486 510 506 480 520 442Z"/>
</g>
<g id="font_0_97">
<path transform="matrix(.001,0,0,.001,0,0)" d="M343 275C270 275 220 266 192 250 164 233 150 205 150 165 150 133 160 107 181 89 202 70 231 61 267 61 317 61 357 78 387 114 417 149 432 196 432 255V275H343ZM522 312V0H432V83C411 49 385 25 355 10 325-5 287-13 243-13 187-13 142 2 109 33 76 64 60 106 60 159 60 220 80 266 122 298 163 329 224 345 306 345H432V354C432 395 418 427 391 450 364 472 326 484 277 484 245 484 215 480 185 472 155 464 127 453 100 439V522C132 534 164 544 195 550 226 556 256 560 286 560 365 560 424 539 463 498 502 457 522 395 522 312Z"/>
</g>
<g id="font_0_108">
<path transform="matrix(.001,0,0,.001,0,0)" d="M94 760H184V0H94V760Z"/>
</g>
<g id="font_0_105">
<path transform="matrix(.001,0,0,.001,0,0)" d="M94 547H184V0H94V547ZM94 760H184V646H94V760Z"/>
</g>
<g id="font_0_122">
<path transform="matrix(.001,0,0,.001,0,0)" d="M55 547H482V465L144 72H482V0H43V82L381 475H55V547Z"/>
</g>
<g id="font_0_101">
<path transform="matrix(.001,0,0,.001,0,0)" d="M562 296V252H149C153 190 171 142 205 110 238 78 284 62 344 62 378 62 412 66 444 74 476 82 509 95 541 113V28C509 14 476 3 442-3 408-9 373-13 339-13 251-13 182 12 131 62 80 112 55 181 55 268 55 357 79 428 127 481 175 533 241 560 323 560 397 560 455 536 498 489 540 441 562 377 562 296ZM472 322C471 371 457 410 431 440 404 469 368 484 324 484 274 484 234 469 204 441 174 413 156 373 152 322H472Z"/>
</g>
<g id="font_0_100">
<path transform="matrix(.001,0,0,.001,0,0)" d="M454 464V760H544V0H454V82C435 49 411 25 382 10 353-5 319-13 279-13 213-13 159 13 117 65 75 117 55 187 55 273 55 359 75 428 117 481 159 533 213 560 279 560 319 560 353 552 382 536 411 520 435 496 454 464ZM148 273C148 207 161 155 188 117 215 79 252 61 300 61 348 61 385 79 413 117 440 155 454 207 454 273 454 339 440 390 413 428 385 466 348 485 300 485 252 485 215 466 188 428 161 390 148 339 148 273Z"/>
</g>
<g id="font_0_32">
</g>
<g id="font_0_121">
<path transform="matrix(.001,0,0,.001,0,0)" d="M322-50C296-114 271-157 247-177 223-197 191-207 151-207H79V-132H132C156-132 175-126 189-114 203-102 218-75 235-31L251 9 30 547H125L296 119 467 547H562L322-50Z"/>
</g>
<g id="font_0_110">
<path transform="matrix(.001,0,0,.001,0,0)" d="M549 330V0H459V327C459 379 448 417 428 443 408 469 378 482 338 482 289 482 251 466 223 435 195 404 181 362 181 309V0H91V547H181V462C202 494 227 519 257 535 286 551 320 560 358 560 420 560 468 540 500 501 532 462 549 405 549 330Z"/>
</g>
<g id="font_0_120">
<path transform="matrix(.001,0,0,.001,0,0)" d="M549 547 351 281 559 0H453L294 215 135 0H29L241 286 47 547H153L298 352 443 547H549Z"/>
</g>
<clipPath id="clip_1">
<path transform="matrix(1,0,0,-1,0,395.65095)" d="M95.124378 139.87381H525.6971V361.0578H95.124378Z"/>
</clipPath>
<g id="font_0_53">
<path transform="matrix(.001,0,0,.001,0,0)" d="M108 729H495V646H198V467C212 472 227 476 241 478 255 480 270 482 284 482 365 482 429 459 477 415 525 370 549 310 549 234 549 155 524 94 475 51 426 8 357-13 269-13 238-13 207-10 175-6 143-1 111 6 77 17V116C106 100 136 88 168 80 199 72 232 69 267 69 323 69 368 83 401 113 433 143 450 183 450 234 450 284 433 324 401 354 368 384 323 399 267 399 241 399 214 396 188 390 162 384 135 375 108 363V729Z"/>
</g>
<clipPath id="clip_2">
<path transform="matrix(.018,0,0,-.018,32.968126,242.07456)" d="M-1021-463H1794V1233H-1021Z"/>
</clipPath>
<clipPath id="clip_3">
<path transform="matrix(1,0,0,-1,0,395.65095)" d="M95.124378 139.87381H525.6971V361.0578H95.124378Z"/>
</clipPath>
<clipPath id="clip_4">
<path transform="matrix(1,0,0,-1,0,395.65095)" d="M95.124378 139.87381H525.6971V361.0578H95.124378Z"/>
</clipPath>
<clipPath id="clip_5">
<path transform="matrix(1,0,0,-1,0,395.65095)" d="M95.124378 139.87381H525.6971V361.0578H95.124378Z"/>
</clipPath>
<clipPath id="clip_6">
<path transform="matrix(1,0,0,-1,0,395.65095)" d="M95.124378 139.87381H525.6971V361.0578H95.124378Z"/>
</clipPath>
<g id="font_0_55">
<path transform="matrix(.001,0,0,.001,0,0)" d="M82 729H551V687L286 0H183L432 646H82V729Z"/>
</g>
<clipPath id="clip_7">
<path transform="matrix(1,0,0,-1,0,395.65095)" d="M95.124378 139.87381H525.6971V361.0578H95.124378Z"/>
</clipPath>
<g id="font_0_67">
<path transform="matrix(.001,0,0,.001,0,0)" d="M644 673V569C610 599 575 622 537 638 499 653 460 661 418 661 334 661 270 635 226 584 182 533 160 460 160 364 160 268 182 194 226 143 270 92 334 67 418 67 460 67 499 74 537 90 575 105 610 128 644 159V56C609 32 572 15 534 4 496-7 455-13 412-13 302-13 215 20 151 87 87 154 56 246 56 364 56 481 87 573 151 641 215 708 302 742 412 742 456 742 497 736 535 725 573 713 610 696 644 673Z"/>
</g>
<g id="font_0_115">
<path transform="matrix(.001,0,0,.001,0,0)" d="M443 531V446C417 458 391 468 364 475 336 481 308 485 279 485 234 485 200 478 178 464 156 450 145 430 145 403 145 382 153 366 169 354 185 342 217 330 265 320L296 313C360 299 405 279 432 255 458 230 472 195 472 151 472 100 452 60 412 31 372 1 316-13 246-13 216-13 186-10 154-5 122 0 89 8 54 20V113C87 95 120 82 152 74 184 65 216 61 248 61 290 61 323 68 346 82 368 96 380 117 380 144 380 168 371 187 355 200 339 213 303 226 247 238L216 245C160 257 119 275 95 299 70 323 58 356 58 399 58 450 76 490 112 518 148 546 200 560 268 560 301 560 332 557 362 552 391 547 418 540 443 531Z"/>
</g>
<g id="font_0_116">
<path transform="matrix(.001,0,0,.001,0,0)" d="M183 702V547H368V477H183V180C183 135 189 106 201 94 213 81 238 75 276 75H368V0H276C206 0 158 13 132 39 106 65 93 112 93 180V477H27V547H93V702H183Z"/>
</g>
<clipPath id="clip_8">
<path transform="matrix(1,0,0,-1,0,395.65095)" d="M95.124378 139.87381H525.6971V361.0578H95.124378Z"/>
</clipPath>
<clipPath id="clip_9">
<path transform="matrix(1,0,0,-1,0,395.65095)" d="M95.124378 139.87381H525.6971V361.0578H95.124378Z"/>
</clipPath>
<clipPath id="clip_10">
<path transform="matrix(1,0,0,-1,0,395.65095)" d="M95.124378 139.87381H525.6971V361.0578H95.124378Z"/>
</clipPath>
<clipPath id="clip_11">
<path transform="matrix(1,0,0,-1,0,395.65095)" d="M95.124378 139.87381H525.6971V361.0578H95.124378Z"/>
</clipPath>
<clipPath id="clip_12">
<path transform="matrix(1,0,0,-1,0,395.65095)" d="M95.124378 139.87381H525.6971V361.0578H95.124378Z"/>
</clipPath>
<g id="font_0_40">
<path transform="matrix(.001,0,0,.001,0,0)" d="M310 759C266 683 234 609 213 536 191 463 181 389 181 314 181 238 191 164 213 91 234 17 266-56 310-131H232C183-54 146 20 122 94 98 168 86 241 86 314 86 386 98 459 122 533 146 607 182 682 232 759H310Z"/>
</g>
<g id="font_0_41">
<path transform="matrix(.001,0,0,.001,0,0)" d="M80 759H158C206 682 243 607 267 533 291 459 304 386 304 314 304 241 291 168 267 94 243 20 206-54 158-131H80C123-56 155 17 177 91 198 164 209 238 209 314 209 389 198 463 177 536 155 609 123 683 80 759Z"/>
</g>
<g id="font_0_68">
<path transform="matrix(.001,0,0,.001,0,0)" d="M197 648V81H316C416 81 490 103 537 149 583 195 607 267 607 365 607 463 583 534 537 580 490 625 416 648 316 648H197ZM98 729H301C442 729 546 699 612 641 678 582 711 490 711 365 711 239 677 147 611 88 545 29 441 0 301 0H98V729Z"/>
</g>
<g id="font_0_99">
<path transform="matrix(.001,0,0,.001,0,0)" d="M488 526V442C462 456 437 466 411 473 385 480 360 484 334 484 276 484 230 465 198 428 166 391 150 339 150 273 150 206 166 154 198 117 230 80 276 62 334 62 360 62 385 65 411 72 437 79 462 90 488 104V21C462 9 436 0 410-5 383-10 354-13 324-13 242-13 176 12 128 64 79 115 55 185 55 273 55 362 79 432 128 483 177 534 244 560 330 560 358 560 385 557 411 551 437 545 463 537 488 526Z"/>
</g>
<clipPath id="clip_13">
<path transform="matrix(1,0,0,-1,0,395.65095)" d="M95.124378 139.87381H525.6971V361.0578H95.124378Z"/>
</clipPath>
<clipPath id="clip_14">
<path transform="matrix(1,0,0,-1,0,395.65095)" d="M95.124378 139.87381H525.6971V361.0578H95.124378Z"/>
</clipPath>
<clipPath id="clip_15">
<path transform="matrix(1,0,0,-1,0,395.65095)" d="M95.124378 139.87381H525.6971V361.0578H95.124378Z"/>
</clipPath>
<clipPath id="clip_16">
<path transform="matrix(1,0,0,-1,0,395.65095)" d="M95.124378 139.87381H525.6971V361.0578H95.124378Z"/>
</clipPath>
<g id="font_0_81">
<path transform="matrix(.001,0,0,.001,0,0)" d="M394 662C322 662 265 635 223 582 181 528 160 456 160 364 160 272 181 199 223 146 265 92 322 66 394 66 465 66 522 92 564 146 606 199 627 272 627 364 627 456 606 528 564 582 522 635 465 662 394 662ZM532 13 662-128H543L435-11C424-11 416-12 410-12 404-12 399-13 394-13 291-13 209 21 148 89 86 157 56 248 56 364 56 479 86 571 148 639 209 707 291 742 394 742 496 742 577 707 639 639 700 571 731 479 731 364 731 279 714 206 680 146 646 86 596 41 532 13Z"/>
</g>
<g id="font_0_119">
<path transform="matrix(.001,0,0,.001,0,0)" d="M42 547H132L244 120 356 547H462L574 120 686 547H776L633 0H527L409 448 291 0H185L42 547Z"/>
</g>
<g id="font_0_51">
<path transform="matrix(.001,0,0,.001,0,0)" d="M406 393C453 383 490 362 516 330 542 298 556 258 556 212 556 140 531 84 482 45 432 6 362-13 271-13 240-13 208-10 176-4 144 1 110 10 76 22V117C103 101 133 89 166 81 198 73 232 69 268 69 330 69 377 81 409 105 441 129 458 165 458 212 458 254 443 288 413 312 383 336 341 349 287 349H202V430H291C339 430 376 439 402 459 428 478 441 506 441 543 441 580 427 609 401 629 374 649 336 659 287 659 260 659 231 656 200 650 169 644 135 635 98 623V711C135 721 170 729 203 734 235 739 266 742 296 742 370 742 429 725 473 691 517 657 539 611 539 553 539 513 527 479 504 451 481 423 448 403 406 393Z"/>
</g>
<g id="font_0_45">
<path transform="matrix(.001,0,0,.001,0,0)" d="M49 314H312V234H49V314Z"/>
</g>
<g id="font_0_66">
<path transform="matrix(.001,0,0,.001,0,0)" d="M197 348V81H355C408 81 447 92 473 114 498 136 511 169 511 215 511 260 498 293 473 315 447 337 408 348 355 348H197ZM197 648V428H343C391 428 426 437 450 455 474 473 486 500 486 538 486 574 474 602 450 620 426 638 391 648 343 648H197ZM98 729H350C425 729 483 713 524 682 564 650 585 606 585 549 585 504 574 468 553 442 532 416 502 399 462 393 510 382 548 360 575 327 601 294 615 253 615 204 615 138 592 88 548 53 504 17 441 0 360 0H98V729Z"/>
</g>
<g id="font_0_73">
<path transform="matrix(.001,0,0,.001,0,0)" d="M98 729H197V0H98V729Z"/>
</g>
<g id="font_0_117">
<path transform="matrix(.001,0,0,.001,0,0)" d="M85 216V547H175V219C175 167 185 129 205 103 225 77 255 64 296 64 344 64 383 79 411 110 439 141 453 183 453 237V547H543V0H453V84C431 50 405 26 377 10 348-5 315-13 277-13 214-13 166 6 134 45 101 83 85 140 85 216ZM311 560V560Z"/>
</g>
<g id="font_0_76">
<path transform="matrix(.001,0,0,.001,0,0)" d="M98 729H197V83H552V0H98V729Z"/>
</g>
<g id="font_0_107">
<path transform="matrix(.001,0,0,.001,0,0)" d="M91 760H181V311L449 547H564L274 291 576 0H459L181 267V0H91V760Z"/>
</g>
<g id="font_0_83">
<path transform="matrix(.001,0,0,.001,0,0)" d="M535 705V609C497 627 462 640 429 649 395 657 363 662 333 662 279 662 237 651 208 631 179 610 165 580 165 542 165 510 174 485 194 469 213 452 250 439 304 429L364 417C437 403 491 378 526 343 561 307 579 260 579 201 579 130 555 77 508 41 460 5 391-13 300-13 265-13 228-9 189-2 150 5 110 16 69 32V134C109 111 148 94 186 83 224 71 262 66 300 66 356 66 399 77 430 99 460 121 476 152 476 194 476 230 465 258 443 278 421 298 385 313 335 323L275 335C201 349 148 372 115 404 82 435 66 478 66 534 66 598 88 649 134 686 179 723 242 742 322 742 356 742 390 739 426 733 461 727 497 717 535 705Z"/>
</g>
<g id="font_0_71">
<path transform="matrix(.001,0,0,.001,0,0)" d="M595 104V300H434V381H693V68C655 40 613 20 567 7 521-6 472-13 420-13 306-13 216 20 152 86 88 152 56 245 56 364 56 482 88 575 152 642 216 708 306 742 420 742 467 742 512 736 555 724 598 712 638 695 674 673V568C637 598 598 621 557 637 516 653 473 661 428 661 338 661 271 636 227 586 182 536 160 462 160 364 160 265 182 191 227 141 271 91 338 67 428 67 462 67 493 70 521 76 549 82 573 91 595 104Z"/>
</g>
<g id="font_0_65">
<path transform="matrix(.001,0,0,.001,0,0)" d="M342 632 208 269H476L342 632ZM286 729H398L676 0H573L507 187H178L112 0H8L286 729Z"/>
</g>
<g id="font_0_103">
<path transform="matrix(.001,0,0,.001,0,0)" d="M454 280C454 344 440 395 414 431 387 467 349 485 301 485 253 485 215 467 188 431 161 395 148 344 148 280 148 215 161 165 188 129 215 93 253 75 301 75 349 75 387 93 414 129 440 165 454 215 454 280ZM544 68C544-24 523-93 482-139 440-184 377-207 292-207 260-207 231-204 203-200 175-195 147-188 121-178V-91C147-105 173-115 199-122 225-129 251-133 278-133 336-133 380-117 410-87 439-56 454-10 454 52V96C435 64 411 40 382 24 353 8 319 0 279 0 211 0 157 25 116 76 75 127 55 195 55 280 55 364 75 432 116 483 157 534 211 560 279 560 319 560 353 552 382 536 411 520 435 496 454 464V547H544V68Z"/>
</g>
<clipPath id="clip_17">
<path transform="matrix(1,0,0,-1,0,395.65095)" d="M641.95169 139.87381H1072.5244V361.0578H641.95169Z"/>
</clipPath>
<clipPath id="clip_18">
<path transform="matrix(1,0,0,-1,0,395.65095)" d="M641.95169 139.87381H1072.5244V361.0578H641.95169Z"/>
</clipPath>
<clipPath id="clip_19">
<path transform="matrix(1,0,0,-1,0,395.65095)" d="M641.95169 139.87381H1072.5244V361.0578H641.95169Z"/>
</clipPath>
<clipPath id="clip_20">
<path transform="matrix(1,0,0,-1,0,395.65095)" d="M641.95169 139.87381H1072.5244V361.0578H641.95169Z"/>
</clipPath>
<clipPath id="clip_21">
<path transform="matrix(1,0,0,-1,0,395.65095)" d="M641.95169 139.87381H1072.5244V361.0578H641.95169Z"/>
</clipPath>
<clipPath id="clip_22">
<path transform="matrix(1,0,0,-1,0,395.65095)" d="M641.95169 139.87381H1072.5244V361.0578H641.95169Z"/>
</clipPath>
<g id="font_0_57">
<path transform="matrix(.001,0,0,.001,0,0)" d="M110 15V105C134 93 159 84 185 78 210 72 235 69 260 69 324 69 374 90 408 134 442 178 462 244 468 334 448 306 424 284 396 269 367 254 335 247 300 247 226 247 168 269 126 313 84 357 63 417 63 494 63 568 85 628 129 674 173 719 232 742 306 742 390 742 455 709 499 645 543 580 566 486 566 364 566 248 538 157 484 89 429 21 356-13 264-13 239-13 214-10 189-6 163-2 137 5 110 15ZM306 324C350 324 385 339 411 369 437 399 450 441 450 494 450 546 437 588 411 618 385 648 350 664 306 664 262 664 227 648 201 618 175 588 162 546 162 494 162 441 175 399 201 369 227 339 262 324 306 324Z"/>
</g>
<clipPath id="clip_23">
<path transform="matrix(1,0,0,-1,0,395.65095)" d="M641.95169 139.87381H1072.5244V361.0578H641.95169Z"/>
</clipPath>
<g id="font_0_82">
<path transform="matrix(.001,0,0,.001,0,0)" d="M444 342C465 334 486 319 506 296 526 272 546 240 566 199L666 0H560L467 187C443 235 419 268 397 284 374 300 343 308 304 308H197V0H98V729H321C404 729 466 711 507 677 548 642 569 589 569 519 569 473 558 434 537 404 515 374 484 353 444 342ZM197 648V389H321C368 389 404 400 428 422 452 444 465 476 465 519 465 561 452 593 428 615 404 637 368 648 321 648H197Z"/>
</g>
<clipPath id="clip_24">
<path transform="matrix(1,0,0,-1,0,395.65095)" d="M641.95169 139.87381H1072.5244V361.0578H641.95169Z"/>
</clipPath>
<g id="font_0_104">
<path transform="matrix(.001,0,0,.001,0,0)" d="M549 330V0H459V327C459 379 448 417 428 443 408 469 378 482 338 482 289 482 251 466 223 435 195 404 181 362 181 309V0H91V760H181V462C202 494 227 519 257 535 286 551 320 560 358 560 420 560 468 540 500 501 532 462 549 405 549 330Z"/>
</g>
<clipPath id="clip_25">
<path transform="matrix(1,0,0,-1,0,395.65095)" d="M641.95169 139.87381H1072.5244V361.0578H641.95169Z"/>
</clipPath>
<clipPath id="clip_26">
<path transform="matrix(1,0,0,-1,0,395.65095)" d="M641.95169 139.87381H1072.5244V361.0578H641.95169Z"/>
</clipPath>
<clipPath id="clip_27">
<path transform="matrix(1,0,0,-1,0,395.65095)" d="M641.95169 139.87381H1072.5244V361.0578H641.95169Z"/>
</clipPath>
<clipPath id="clip_28">
<path transform="matrix(1,0,0,-1,0,395.65095)" d="M641.95169 139.87381H1072.5244V361.0578H641.95169Z"/>
</clipPath>
<clipPath id="clip_29">
<path transform="matrix(1,0,0,-1,0,395.65095)" d="M641.95169 139.87381H1072.5244V361.0578H641.95169Z"/>
</clipPath>
<clipPath id="clip_30">
<path transform="matrix(1,0,0,-1,0,395.65095)" d="M641.95169 139.87381H1072.5244V361.0578H641.95169Z"/>
</clipPath>
<g id="font_0_98">
<path transform="matrix(.001,0,0,.001,0,0)" d="M487 273C487 339 473 390 446 428 418 466 381 485 334 485 286 485 249 466 222 428 194 390 181 339 181 273 181 207 194 155 222 117 249 79 286 61 334 61 381 61 418 79 446 117 473 155 487 207 487 273ZM181 464C199 496 223 520 252 536 281 552 316 560 356 560 422 560 476 533 518 481 559 428 580 359 580 273 580 187 559 117 518 65 476 13 422-13 356-13 316-13 281-5 252 10 223 25 199 49 181 82V0H91V760H181V464Z"/>
</g>
<clipPath id="clip_31">
<path transform="matrix(1,0,0,-1,0,395.65095)" d="M641.95169 139.87381H1072.5244V361.0578H641.95169Z"/>
</clipPath>
<clipPath id="clip_32">
<path transform="matrix(1,0,0,-1,0,395.65095)" d="M641.95169 139.87381H1072.5244V361.0578H641.95169Z"/>
</clipPath>
<clipPath id="clip_33">
<path transform="matrix(1,0,0,-1,0,395.65095)" d="M641.95169 139.87381H1072.5244V361.0578H641.95169Z"/>
</clipPath>
<clipPath id="clip_34">
<path transform="matrix(1,0,0,-1,0,395.65095)" d="M641.95169 139.87381H1072.5244V361.0578H641.95169Z"/>
</clipPath>
<clipPath id="clip_35">
<path transform="matrix(1,0,0,-1,0,395.65095)" d="M641.95169 139.87381H1072.5244V361.0578H641.95169Z"/>
</clipPath>
<clipPath id="clip_36">
<path transform="matrix(1,0,0,-1,0,395.65095)" d="M641.95169 139.87381H1072.5244V361.0578H641.95169Z"/>
</clipPath>
<g id="font_0_79">
<path transform="matrix(.001,0,0,.001,0,0)" d="M394 662C322 662 265 635 223 582 181 528 160 456 160 364 160 272 181 199 223 146 265 92 322 66 394 66 465 66 522 92 564 146 606 199 627 272 627 364 627 456 606 528 564 582 522 635 465 662 394 662ZM394 742C496 742 577 707 639 639 700 571 731 479 731 364 731 248 700 157 639 89 577 21 496-13 394-13 291-13 209 21 148 89 86 157 56 248 56 364 56 479 86 571 148 639 209 707 291 742 394 742Z"/>
</g>
</defs>
<path transform="matrix(1,0,0,-1,0,395.65095)" d="M0 0H1081.1644V395.65095H0Z" fill="#ffffff"/>
<path transform="matrix(1,0,0,-1,0,395.65095)" d="M95.124378 139.87381H525.6971V361.0578H95.124378Z" fill="#ffffff"/>
<path transform="matrix(1,0,0,-1,0,395.65095)" d="M114.69586 139.87381V136.37381"/>
<path transform="matrix(1,0,0,-1,0,395.65095)" stroke-width=".8" stroke-linecap="butt" stroke-linejoin="round" fill="none" stroke="#000000" d="M114.69586 139.87381V136.37381"/>
<use data-text="0" xlink:href="#font_0_48" transform="matrix(18,0,0,-18,100.38336,276.449)"/>
<use data-text="." xlink:href="#font_0_46" transform="matrix(18,0,0,-18,111.83136,276.449)"/>
<use data-text="0" xlink:href="#font_0_48" transform="matrix(18,0,0,-18,117.55536,276.449)"/>
<path transform="matrix(1,0,0,-1,0,395.65095)" d="M192.98181 139.87381V136.37381"/>
<path transform="matrix(1,0,0,-1,0,395.65095)" stroke-width=".8" stroke-linecap="butt" stroke-linejoin="round" fill="none" stroke="#000000" d="M192.98181 139.87381V136.37381"/>
<use data-text="0" xlink:href="#font_0_48" transform="matrix(18,0,0,-18,178.6693,276.449)"/>
<use data-text="." xlink:href="#font_0_46" transform="matrix(18,0,0,-18,190.1173,276.449)"/>
<use data-text="2" xlink:href="#font_0_50" transform="matrix(18,0,0,-18,195.8413,276.449)"/>
<path transform="matrix(1,0,0,-1,0,395.65095)" d="M271.26777 139.87381V136.37381"/>
<path transform="matrix(1,0,0,-1,0,395.65095)" stroke-width=".8" stroke-linecap="butt" stroke-linejoin="round" fill="none" stroke="#000000" d="M271.26777 139.87381V136.37381"/>
<use data-text="0" xlink:href="#font_0_48" transform="matrix(18,0,0,-18,256.95527,276.449)"/>
<use data-text="." xlink:href="#font_0_46" transform="matrix(18,0,0,-18,268.40327,276.449)"/>
<use data-text="4" xlink:href="#font_0_52" transform="matrix(18,0,0,-18,274.12727,276.449)"/>
<path transform="matrix(1,0,0,-1,0,395.65095)" d="M349.55369 139.87381V136.37381"/>
<path transform="matrix(1,0,0,-1,0,395.65095)" stroke-width=".8" stroke-linecap="butt" stroke-linejoin="round" fill="none" stroke="#000000" d="M349.55369 139.87381V136.37381"/>
<use data-text="0" xlink:href="#font_0_48" transform="matrix(18,0,0,-18,335.24119,276.449)"/>
<use data-text="." xlink:href="#font_0_46" transform="matrix(18,0,0,-18,346.68919,276.449)"/>
<use data-text="6" xlink:href="#font_0_54" transform="matrix(18,0,0,-18,352.41319,276.449)"/>
<path transform="matrix(1,0,0,-1,0,395.65095)" d="M427.83964 139.87381V136.37381"/>
<path transform="matrix(1,0,0,-1,0,395.65095)" stroke-width=".8" stroke-linecap="butt" stroke-linejoin="round" fill="none" stroke="#000000" d="M427.83964 139.87381V136.37381"/>
<use data-text="0" xlink:href="#font_0_48" transform="matrix(18,0,0,-18,413.52714,276.449)"/>
<use data-text="." xlink:href="#font_0_46" transform="matrix(18,0,0,-18,424.97514,276.449)"/>
<use data-text="8" xlink:href="#font_0_56" transform="matrix(18,0,0,-18,430.69914,276.449)"/>
<path transform="matrix(1,0,0,-1,0,395.65095)" d="M506.12559 139.87381V136.37381"/>
<path transform="matrix(1,0,0,-1,0,395.65095)" stroke-width=".8" stroke-linecap="butt" stroke-linejoin="round" fill="none" stroke="#000000" d="M506.12559 139.87381V136.37381"/>
<use data-text="1" xlink:href="#font_0_49" transform="matrix(18,0,0,-18,491.81309,276.449)"/>
<use data-text="." xlink:href="#font_0_46" transform="matrix(18,0,0,-18,503.26109,276.449)"/>
<use data-text="0" xlink:href="#font_0_48" transform="matrix(18,0,0,-18,508.98509,276.449)"/>
<use data-text="N" xlink:href="#font_0_78" transform="matrix(21,0,0,-21,189.13729,300.15214)"/>
<use data-text="o" xlink:href="#font_0_111" transform="matrix(21,0,0,-21,204.84528,300.15214)"/>
<use data-text="r" xlink:href="#font_0_114" transform="matrix(21,0,0,-21,217.69728,300.15214)"/>
<use data-text="m" xlink:href="#font_0_109" transform="matrix(21,0,0,-21,225.9689,300.15214)"/>
<use data-text="a" xlink:href="#font_0_97" transform="matrix(21,0,0,-21,246.42292,300.15214)"/>
<use data-text="l" xlink:href="#font_0_108" transform="matrix(21,0,0,-21,259.2959,300.15214)"/>
<use data-text="i" xlink:href="#font_0_105" transform="matrix(21,0,0,-21,265.1339,300.15214)"/>
<use data-text="z" xlink:href="#font_0_122" transform="matrix(21,0,0,-21,270.97193,300.15214)"/>
<use data-text="e" xlink:href="#font_0_101" transform="matrix(21,0,0,-21,281.99693,300.15214)"/>
<use data-text="d" xlink:href="#font_0_100" transform="matrix(21,0,0,-21,294.91194,300.15214)"/>
<use data-text=" " xlink:href="#font_0_32" transform="matrix(21,0,0,-21,308.24693,300.15214)"/>
<use data-text="l" xlink:href="#font_0_108" transform="matrix(21,0,0,-21,314.92494,300.15214)"/>
<use data-text="a" xlink:href="#font_0_97" transform="matrix(21,0,0,-21,320.7629,300.15214)"/>
<use data-text="y" xlink:href="#font_0_121" transform="matrix(21,0,0,-21,333.63594,300.15214)"/>
<use data-text="e" xlink:href="#font_0_101" transform="matrix(21,0,0,-21,346.06794,300.15214)"/>
<use data-text="r" xlink:href="#font_0_114" transform="matrix(21,0,0,-21,358.9829,300.15214)"/>
<use data-text=" " xlink:href="#font_0_32" transform="matrix(21,0,0,-21,367.6139,300.15214)"/>
<use data-text="i" xlink:href="#font_0_105" transform="matrix(21,0,0,-21,374.2919,300.15214)"/>
<use data-text="n" xlink:href="#font_0_110" transform="matrix(21,0,0,-21,380.12989,300.15214)"/>
<use data-text="d" xlink:href="#font_0_100" transform="matrix(21,0,0,-21,393.4439,300.15214)"/>
<use data-text="e" xlink:href="#font_0_101" transform="matrix(21,0,0,-21,406.7789,300.15214)"/>
<use data-text="x" xlink:href="#font_0_120" transform="matrix(21,0,0,-21,419.33454,300.15214)"/>
<g clip-path="url(#clip_1)">
<path transform="matrix(1,0,0,-1,0,395.65095)" stroke-width=".8" stroke-linecap="square" stroke-linejoin="round" fill="none" stroke="#eeeeee" d="M95.124378 160.41233H525.6971"/>
</g>
<path transform="matrix(1,0,0,-1,0,395.65095)" d="M95.124378 160.41233H91.624378"/>
<path transform="matrix(1,0,0,-1,0,395.65095)" stroke-width=".8" stroke-linecap="butt" stroke-linejoin="round" fill="none" stroke="#000000" d="M95.124378 160.41233H91.624378"/>
<use data-text="0" xlink:href="#font_0_48" transform="matrix(18,0,0,-18,48.050157,242.07456)"/>
<use data-text="." xlink:href="#font_0_46" transform="matrix(18,0,0,-18,59.498159,242.07456)"/>
<use data-text="2" xlink:href="#font_0_50" transform="matrix(18,0,0,-18,65.22215,242.07456)"/>
<use data-text="5" xlink:href="#font_0_53" transform="matrix(18,0,0,-18,76.67016,242.07456)"/>
<g clip-path="url(#clip_2)">
<path transform="matrix(.018,0,0,-.018,32.968126,242.07456)" d="M106 355H732V272H106V355Z"/>
</g>
<g clip-path="url(#clip_3)">
<path transform="matrix(1,0,0,-1,0,395.65095)" stroke-width=".8" stroke-linecap="square" stroke-linejoin="round" fill="none" stroke="#eeeeee" d="M95.124378 199.90947H525.6971"/>
</g>
<path transform="matrix(1,0,0,-1,0,395.65095)" d="M95.124378 199.90947H91.624378"/>
<path transform="matrix(1,0,0,-1,0,395.65095)" stroke-width=".8" stroke-linecap="butt" stroke-linejoin="round" fill="none" stroke="#000000" d="M95.124378 199.90947H91.624378"/>
<use data-text="0" xlink:href="#font_0_48" transform="matrix(18,0,0,-18,48.04625,202.57741)"/>
<use data-text="." xlink:href="#font_0_46" transform="matrix(18,0,0,-18,59.49425,202.57741)"/>
<use data-text="0" xlink:href="#font_0_48" transform="matrix(18,0,0,-18,65.21825,202.57741)"/>
<use data-text="0" xlink:href="#font_0_48" transform="matrix(18,0,0,-18,76.66625,202.57741)"/>
<g clip-path="url(#clip_4)">
<path transform="matrix(1,0,0,-1,0,395.65095)" stroke-width=".8" stroke-linecap="square" stroke-linejoin="round" fill="none" stroke="#eeeeee" d="M95.124378 239.40662H525.6971"/>
</g>
<path transform="matrix(1,0,0,-1,0,395.65095)" d="M95.124378 239.40662H91.624378"/>
<path transform="matrix(1,0,0,-1,0,395.65095)" stroke-width=".8" stroke-linecap="butt" stroke-linejoin="round" fill="none" stroke="#000000" d="M95.124378 239.40662H91.624378"/>
<use data-text="0" xlink:href="#font_0_48" transform="matrix(18,0,0,-18,48.04625,163.08026)"/>
<use data-text="." xlink:href="#font_0_46" transform="matrix(18,0,0,-18,59.49425,163.08026)"/>
<use data-text="2" xlink:href="#font_0_50" transform="matrix(18,0,0,-18,65.21825,163.08026)"/>
<use data-text="5" xlink:href="#font_0_53" transform="matrix(18,0,0,-18,76.66625,163.08026)"/>
<g clip-path="url(#clip_5)">
<path transform="matrix(1,0,0,-1,0,395.65095)" stroke-width=".8" stroke-linecap="square" stroke-linejoin="round" fill="none" stroke="#eeeeee" d="M95.124378 278.90376H525.6971"/>
</g>
<path transform="matrix(1,0,0,-1,0,395.65095)" d="M95.124378 278.90376H91.624378"/>
<path transform="matrix(1,0,0,-1,0,395.65095)" stroke-width=".8" stroke-linecap="butt" stroke-linejoin="round" fill="none" stroke="#000000" d="M95.124378 278.90376H91.624378"/>
<use data-text="0" xlink:href="#font_0_48" transform="matrix(18,0,0,-18,48.04625,123.58313)"/>
<use data-text="." xlink:href="#font_0_46" transform="matrix(18,0,0,-18,59.49425,123.58313)"/>
<use data-text="5" xlink:href="#font_0_53" transform="matrix(18,0,0,-18,65.21825,123.58313)"/>
<use data-text="0" xlink:href="#font_0_48" transform="matrix(18,0,0,-18,76.66625,123.58313)"/>
<g clip-path="url(#clip_6)">
<path transform="matrix(1,0,0,-1,0,395.65095)" stroke-width=".8" stroke-linecap="square" stroke-linejoin="round" fill="none" stroke="#eeeeee" d="M95.124378 318.4009H525.6971"/>
</g>
<path transform="matrix(1,0,0,-1,0,395.65095)" d="M95.124378 318.4009H91.624378"/>
<path transform="matrix(1,0,0,-1,0,395.65095)" stroke-width=".8" stroke-linecap="butt" stroke-linejoin="round" fill="none" stroke="#000000" d="M95.124378 318.4009H91.624378"/>
<use data-text="0" xlink:href="#font_0_48" transform="matrix(18,0,0,-18,48.04625,84.08597)"/>
<use data-text="." xlink:href="#font_0_46" transform="matrix(18,0,0,-18,59.49425,84.08597)"/>
<use data-text="7" xlink:href="#font_0_55" transform="matrix(18,0,0,-18,65.21825,84.08597)"/>
<use data-text="5" xlink:href="#font_0_53" transform="matrix(18,0,0,-18,76.66625,84.08597)"/>
<g clip-path="url(#clip_7)">
<path transform="matrix(1,0,0,-1,0,395.65095)" stroke-width=".8" stroke-linecap="square" stroke-linejoin="round" fill="none" stroke="#eeeeee" d="M95.124378 357.89805H525.6971"/>
</g>
<path transform="matrix(1,0,0,-1,0,395.65095)" d="M95.124378 357.89805H91.624378"/>
<path transform="matrix(1,0,0,-1,0,395.65095)" stroke-width=".8" stroke-linecap="butt" stroke-linejoin="round" fill="none" stroke="#000000" d="M95.124378 357.89805H91.624378"/>
<use data-text="1" xlink:href="#font_0_49" transform="matrix(18,0,0,-18,48.04625,44.588838)"/>
<use data-text="." xlink:href="#font_0_46" transform="matrix(18,0,0,-18,59.49425,44.588838)"/>
<use data-text="0" xlink:href="#font_0_48" transform="matrix(18,0,0,-18,65.21825,44.588838)"/>
<use data-text="0" xlink:href="#font_0_48" transform="matrix(18,0,0,-18,76.66625,44.588838)"/>
<use data-text="C" xlink:href="#font_0_67" transform="matrix(0,-21,-21,-0,24.593125,232.21639)"/>
<use data-text="o" xlink:href="#font_0_111" transform="matrix(0,-21,-21,-0,24.593125,217.55838)"/>
<use data-text="s" xlink:href="#font_0_115" transform="matrix(0,-21,-21,-0,24.593125,204.70639)"/>
<use data-text="i" xlink:href="#font_0_105" transform="matrix(0,-21,-21,-0,24.593125,193.76538)"/>
<use data-text="n" xlink:href="#font_0_110" transform="matrix(0,-21,-21,-0,24.593125,187.92739)"/>
<use data-text="e" xlink:href="#font_0_101" transform="matrix(0,-21,-21,-0,24.593125,174.61338)"/>
<use data-text=" " xlink:href="#font_0_32" transform="matrix(0,-21,-21,-0,24.593125,161.69838)"/>
<use data-text="s" xlink:href="#font_0_115" transform="matrix(0,-21,-21,-0,24.593125,155.02039)"/>
<use data-text="i" xlink:href="#font_0_105" transform="matrix(0,-21,-21,-0,24.593125,144.07938)"/>
<use data-text="m" xlink:href="#font_0_109" transform="matrix(0,-21,-21,-0,24.593125,138.24138)"/>
<use data-text="i" xlink:href="#font_0_105" transform="matrix(0,-21,-21,-0,24.593125,117.78738)"/>
<use data-text="l" xlink:href="#font_0_108" transform="matrix(0,-21,-21,-0,24.593125,111.94938)"/>
<use data-text="a" xlink:href="#font_0_97" transform="matrix(0,-21,-21,-0,24.593125,106.11138)"/>
<use data-text="r" xlink:href="#font_0_114" transform="matrix(0,-21,-21,-0,24.593125,93.23839)"/>
<use data-text="i" xlink:href="#font_0_105" transform="matrix(0,-21,-21,-0,24.593125,84.60739)"/>
<use data-text="t" xlink:href="#font_0_116" transform="matrix(0,-21,-21,-0,24.593125,78.769397)"/>
<use data-text="y" xlink:href="#font_0_121" transform="matrix(0,-21,-21,-0,24.593125,70.5374)"/>
<g clip-path="url(#clip_8)">
<path transform="matrix(1,0,0,-1,0,395.65095)" stroke-width="1.5" stroke-linecap="butt" stroke-dasharray="1.5,2.475" stroke-linejoin="round" fill="none" stroke="#999999" d="M95.124378 199.90947H525.6971"/>
</g>
<g clip-path="url(#clip_9)">
<path transform="matrix(1,0,0,-1,0,395.65095)" d="M114.69586 199.90947V199.90947L125.56891 175.50023 136.44196 190.24057 147.315 189.67182 158.18805 192.3892 169.0611 190.93572 179.93415 196.11774 190.80719 184.66358 201.68024 185.99068 212.55329 192.81578 223.42633 192.721 234.29938 189.735 245.17244 188.4711 256.04548 191.44129 266.91853 188.24991 277.79158 193.00537 288.6646 193.57413 299.53767 195.77017 310.4107 197.04988 321.28376 196.19673 332.1568 194.47466 343.02989 192.70519 353.90293 188.64488 364.77598 192.91057 375.64903 192.4208 386.52207 188.92926 397.3951 183.77884 408.26817 178.42302 419.1412 177.77527 430.01426 176.79575 440.8873 180.38208 451.76036 175.34224 462.6334 172.83023 473.50645 162.52938 484.3795 152.56029 495.25254 136.95102 506.12559 152.90787V187.52317L495.25254 178.13864 484.3795 187.17559 473.50645 189.34003 462.6334 194.53786 451.76036 195.46999 440.8873 199.78308 430.01426 196.82869 419.1412 195.312 408.26817 195.01183 397.3951 199.98847 386.52207 204.45954 375.64903 204.38054 364.77598 203.33782 353.90293 197.41326 343.02989 202.1687 332.1568 204.87032 321.28376 205.50226 310.4107 207.06635 299.53767 206.4502 288.6646 203.6854 277.79158 204.79132 266.91853 202.29509 256.04548 206.98735 245.17244 207.28754 234.29938 209.79955 223.42633 211.47423 212.55329 211.67961 201.68024 208.01428 190.80719 207.61931 179.93415 225.37723 169.0611 224.00273 158.18805 225.8196 147.315 216.0243 136.44196 217.4146 125.56891 222.23325 114.69586 199.90947Z" fill="#b5341b" fill-opacity=".1"/>
</g>
<g clip-path="url(#clip_10)">
<path transform="matrix(1,0,0,-1,0,395.65095)" d="M114.69586 199.90947V199.90947L125.56891 291.55863 136.44196 270.56196 147.315 286.02903 158.18805 296.3931 169.0611 299.61607 179.93415 301.5277 190.80719 313.70866 201.68024 310.58049 212.55329 315.58869 223.42633 308.22645 234.29938 314.46699 245.17244 315.13053 256.04548 314.4354 266.91853 315.3991 277.79158 326.03175 288.6646 324.65727 299.53767 324.34129 310.4107 320.8655 321.28376 321.89247 332.1568 324.29386 343.02989 322.6034 353.90293 317.2002 364.77598 321.98725 375.64903 318.3693 386.52207 312.25514 397.3951 310.59626 408.26817 309.33238 419.1412 305.8724 430.01426 304.02394 440.8873 299.88465 451.76036 296.3457 462.6334 292.82255 473.50645 292.98054 484.3795 290.26313 495.25254 293.04374 506.12559 284.22798V295.22398L495.25254 299.36329 484.3795 300.169 473.50645 299.36329 462.6334 301.03797 451.76036 303.29719 440.8873 304.4031 430.01426 309.12696 419.1412 312.71333 408.26817 314.388 397.3951 314.89356 386.52207 319.28565 375.64903 322.8246 364.77598 327.23246 353.90293 321.84507 343.02989 325.55778 332.1568 327.61164 321.28376 325.28919 310.4107 325.76316 299.53767 329.61808 288.6646 328.36997 277.79158 329.00193 266.91853 320.29676 256.04548 317.65837 245.17244 319.82279 234.29938 318.4957 223.42633 315.32014 212.55329 319.01707 201.68024 315.19374 190.80719 321.1341 179.93415 312.17616 169.0611 316.31547 158.18805 302.27027 147.315 292.88575 136.44196 292.2696 125.56891 309.07957 114.69586 199.90947Z" fill="#b5341b" fill-opacity=".1"/>
</g>
<g clip-path="url(#clip_11)">
<path transform="matrix(1,0,0,-1,0,395.65095)" d="M114.69586 199.90947V199.90947L126.92804 170.90277 139.16022 187.69695 151.3924 192.43662 163.62458 211.09506 175.85675 207.09795 188.08893 208.89902 200.3211 197.35005 212.55329 194.63265 224.78546 191.1569 237.01766 188.28151 249.24983 187.065 261.482 188.31311 273.71418 184.42659 285.94636 186.60683 298.17854 183.36806 310.4107 183.63665 322.64289 190.49335 334.87507 191.56768 347.10725 188.31311 359.33946 187.60216 371.57164 185.84848 383.8038 185.7537 396.03599 184.93215 408.26817 183.41547 420.50035 181.37741 432.7325 184.41078 444.9647 183.52605 457.19688 184.3002 469.42906 184.86896 481.66123 184.56877 493.8934 180.96665 506.12559 173.99935V221.71189L493.8934 215.18697 481.66123 213.70188 469.42906 212.53276 457.19688 211.58483 444.9647 210.5263 432.7325 210.36832 420.50035 208.48825 408.26817 209.1202 396.03599 208.9938 383.8038 210.30512 371.57164 209.40459 359.33946 208.55144 347.10725 208.39345 334.87507 209.1044 322.64289 205.28108 310.4107 198.1084 298.17854 198.36118 285.94636 196.84449 273.71418 195.62798 261.482 198.12419 249.24983 197.22367 237.01766 196.49692 224.78546 198.26639 212.55329 205.42327 200.3211 209.2466 188.08893 233.11867 175.85675 227.58907 163.62458 236.65761 151.3924 221.26952 139.16022 212.35897 126.92804 206.3396 114.69586 199.90947Z" fill="#2c6e9b" fill-opacity=".1"/>
</g>
<g clip-path="url(#clip_12)">
<path transform="matrix(1,0,0,-1,0,395.65095)" d="M114.69586 199.90947V199.90947L126.92804 277.70304 139.16022 287.9407 151.3924 292.1748 163.62458 307.4365 175.85675 308.00526 188.08893 306.80455 200.3211 322.7772 212.55329 327.07447 224.78546 335.73225 237.01766 334.54734 249.24983 335.0055 261.482 332.84107 273.71418 334.81593 285.94636 335.0687 298.17854 331.9879 310.4107 331.119 322.64289 330.48704 334.87507 328.97035 347.10725 328.41737 359.33946 326.09495 371.57164 323.40913 383.8038 323.17216 396.03599 322.8246 408.26817 323.77253 420.50035 322.7298 432.7325 322.03465 444.9647 321.45008 457.19688 320.53376 469.42906 320.69175 481.66123 321.71867 493.8934 323.06156 506.12559 325.49458V328.93873L493.8934 327.48524 481.66123 326.58473 469.42906 326.11076 457.19688 326.14234 444.9647 327.56425 432.7325 328.1804 420.50035 329.2231 408.26817 329.79188 396.03599 329.80769 383.8038 330.7398 371.57164 331.62455 359.33946 332.1459 347.10725 333.20445 334.87507 333.5678 322.64289 335.0845 310.4107 336.04823 298.17854 337.6439 285.94636 339.1132 273.71418 339.2554 261.482 336.4906 249.24983 338.08628 237.01766 338.22846 224.78546 339.49238 212.55329 330.53443 200.3211 330.07627 188.08893 311.87599 175.85675 313.88243 163.62458 313.67704 151.3924 295.65055 139.16022 296.2825 126.92804 306.12519 114.69586 199.90947Z" fill="#2c6e9b" fill-opacity=".1"/>
</g>
<path transform="matrix(1,0,0,-1,0,395.65095)" stroke-width=".8" stroke-linecap="square" stroke-miterlimit="10" stroke-linejoin="miter" fill="none" stroke="#000000" d="M95.124378 139.87381V361.0578"/>
<path transform="matrix(1,0,0,-1,0,395.65095)" stroke-width=".8" stroke-linecap="square" stroke-miterlimit="10" stroke-linejoin="miter" fill="none" stroke="#000000" d="M95.124378 139.87381H525.6971"/>
<use data-text="(" xlink:href="#font_0_40" transform="matrix(21,0,0,-21,193.26229,24.59314)"/>
<use data-text="a" xlink:href="#font_0_97" transform="matrix(21,0,0,-21,201.45229,24.59314)"/>
<use data-text=")" xlink:href="#font_0_41" transform="matrix(21,0,0,-21,214.32529,24.59314)"/>
<use data-text=" " xlink:href="#font_0_32" transform="matrix(21,0,0,-21,222.51529,24.59314)"/>
<use data-text="D" xlink:href="#font_0_68" transform="matrix(21,0,0,-21,229.19329,24.59314)"/>
<use data-text="i" xlink:href="#font_0_105" transform="matrix(21,0,0,-21,245.36328,24.59314)"/>
<use data-text="r" xlink:href="#font_0_114" transform="matrix(21,0,0,-21,251.2013,24.59314)"/>
<use data-text="e" xlink:href="#font_0_101" transform="matrix(21,0,0,-21,259.37916,24.59314)"/>
<use data-text="c" xlink:href="#font_0_99" transform="matrix(21,0,0,-21,272.29417,24.59314)"/>
<use data-text="t" xlink:href="#font_0_116" transform="matrix(21,0,0,-21,283.84419,24.59314)"/>
<use data-text="i" xlink:href="#font_0_105" transform="matrix(21,0,0,-21,292.07618,24.59314)"/>
<use data-text="o" xlink:href="#font_0_111" transform="matrix(21,0,0,-21,297.91419,24.59314)"/>
<use data-text="n" xlink:href="#font_0_110" transform="matrix(21,0,0,-21,310.76618,24.59314)"/>
<use data-text=" " xlink:href="#font_0_32" transform="matrix(21,0,0,-21,324.08018,24.59314)"/>
<use data-text="s" xlink:href="#font_0_115" transform="matrix(21,0,0,-21,330.75819,24.59314)"/>
<use data-text="i" xlink:href="#font_0_105" transform="matrix(21,0,0,-21,341.69917,24.59314)"/>
<use data-text="m" xlink:href="#font_0_109" transform="matrix(21,0,0,-21,347.53718,24.59314)"/>
<use data-text="i" xlink:href="#font_0_105" transform="matrix(21,0,0,-21,367.99116,24.59314)"/>
<use data-text="l" xlink:href="#font_0_108" transform="matrix(21,0,0,-21,373.82917,24.59314)"/>
<use data-text="a" xlink:href="#font_0_97" transform="matrix(21,0,0,-21,379.66716,24.59314)"/>
<use data-text="r" xlink:href="#font_0_114" transform="matrix(21,0,0,-21,392.54017,24.59314)"/>
<use data-text="i" xlink:href="#font_0_105" transform="matrix(21,0,0,-21,401.17115,24.59314)"/>
<use data-text="t" xlink:href="#font_0_116" transform="matrix(21,0,0,-21,407.00917,24.59314)"/>
<use data-text="y" xlink:href="#font_0_121" transform="matrix(21,0,0,-21,415.24116,24.59314)"/>
<g clip-path="url(#clip_13)">
<path transform="matrix(1,0,0,-1,0,395.65095)" stroke-width="3" stroke-linecap="square" stroke-linejoin="round" fill="none" stroke="#b5341b" stroke-opacity=".95" d="M114.69586 199.90947 125.56891 198.67716 136.44196 205.69185 147.315 204.63333 158.18805 212.12198 169.0611 207.17694 179.93415 211.53743 190.80719 195.21721 201.68024 197.74503 212.55329 203.44841 223.42633 203.41681 234.29938 200.27285 245.17244 198.37699 256.04548 199.5777 266.91853 194.49047 277.79158 198.72455 288.6646 198.44017 299.53767 201.53675 310.4107 202.62688 321.28376 200.55722 332.1568 199.53029 343.02989 196.6549 353.90293 191.88365 364.77598 197.74503 375.64903 197.83982 386.52207 196.11774 397.3951 190.00359 408.26817 183.49446 419.1412 183.22588 430.01426 182.92569 440.8873 187.22299 451.76036 181.21942 462.6334 177.83847 473.50645 168.18537 484.3795 160.36493 495.25254 146.87271 506.12559 160.71251"/>
</g>
<g clip-path="url(#clip_14)">
<path transform="matrix(1,0,0,-1,0,395.65095)" stroke-width="3" stroke-linecap="butt" stroke-dasharray="11.1,4.8" stroke-linejoin="round" fill="none" stroke="#b5341b" stroke-opacity=".95" d="M114.69586 199.90947 125.56891 297.0187 136.44196 283.66239 147.315 290.14939 158.18805 299.40119 169.0611 308.8426 179.93415 307.37016 190.80719 316.78309 201.68024 313.02613 212.55329 316.92845 223.42633 312.33729 234.29938 316.821 245.17244 317.22547 256.04548 316.29966 266.91853 317.71208 277.79158 327.362 288.6646 326.45515 299.53767 326.17393 310.4107 323.77568 321.28376 323.79148 332.1568 326.40144 343.02989 323.66508 353.90293 319.69325 364.77598 324.4329 375.64903 320.21778 386.52207 316.34074 397.3951 312.8018 408.26817 311.6611 419.1412 309.37345 430.01426 306.7919 440.8873 301.9606 451.76036 299.69505 462.6334 297.48637 473.50645 295.9507 484.3795 296.0234 495.25254 296.01075 506.12559 290.88563"/>
</g>
<g clip-path="url(#clip_15)">
<path transform="matrix(1,0,0,-1,0,395.65095)" stroke-width="3" stroke-linecap="square" stroke-linejoin="round" fill="none" stroke="#2c6e9b" stroke-opacity=".95" d="M114.69586 199.90947 126.92804 186.9544 139.16022 201.15758 151.3924 207.65091 163.62458 228.96356 175.85675 221.4275 188.08893 226.53055 200.3211 204.12776 212.55329 200.24124 224.78546 194.20609 237.01766 191.80466 249.24983 191.58347 261.482 192.5788 273.71418 188.83448 285.94636 190.35117 298.17854 189.27684 310.4107 189.40323 322.64289 196.93929 334.87507 199.07213 347.10725 196.8129 359.33946 195.81757 371.57164 195.54898 383.8038 196.30733 396.03599 194.69585 408.26817 193.51093 420.50035 191.85205 432.7325 194.98023 444.9647 194.0165 457.19688 195.61219 469.42906 196.38632 481.66123 196.13355 493.8934 195.53319 506.12559 195.89656"/>
</g>
<g clip-path="url(#clip_16)">
<path transform="matrix(1,0,0,-1,0,395.65095)" stroke-width="3" stroke-linecap="butt" stroke-dasharray="11.1,4.8" stroke-linejoin="round" fill="none" stroke="#2c6e9b" stroke-opacity=".95" d="M114.69586 199.90947 126.92804 294.18443 139.16022 293.1891 151.3924 293.83683 163.62458 311.18083 175.85675 310.8838 188.08893 308.7699 200.3211 326.9544 212.55329 328.55326 224.78546 338.00727 237.01766 336.50325 249.24983 336.15565 261.482 334.31034 273.71418 336.33894 285.94636 336.69914 298.17854 334.60105 310.4107 333.46037 322.64289 332.53773 334.87507 331.2264 347.10725 330.82829 359.33946 329.6939 371.57164 328.38578 383.8038 327.8265 396.03599 327.0397 408.26817 327.36518 420.50035 326.46464 432.7325 325.34925 444.9647 324.73307 457.19688 323.5229 469.42906 323.24168 481.66123 323.842 493.8934 324.7141 506.12559 327.27354"/>
</g>
<path transform="matrix(1,0,0,-1,0,395.65095)" stroke-width="3" stroke-linecap="square" stroke-linejoin="round" fill="none" stroke="#b5341b" d="M100.012928 45.030626H115.012928 130.01293"/>
<use data-text="Q" xlink:href="#font_0_81" transform="matrix(15,0,0,-15,142.01293,355.8703)"/>
<use data-text="w" xlink:href="#font_0_119" transform="matrix(15,0,0,-15,153.81793,355.8703)"/>
<use data-text="e" xlink:href="#font_0_101" transform="matrix(15,0,0,-15,166.08792,355.8703)"/>
<use data-text="n" xlink:href="#font_0_110" transform="matrix(15,0,0,-15,175.31293,355.8703)"/>
<use data-text="3" xlink:href="#font_0_51" transform="matrix(15,0,0,-15,184.82294,355.8703)"/>
<use data-text="-" xlink:href="#font_0_45" transform="matrix(15,0,0,-15,194.36293,355.8703)"/>
<use data-text="4" xlink:href="#font_0_52" transform="matrix(15,0,0,-15,199.77793,355.8703)"/>
<use data-text="B" xlink:href="#font_0_66" transform="matrix(15,0,0,-15,209.31793,355.8703)"/>
<use data-text="-" xlink:href="#font_0_45" transform="matrix(15,0,0,-15,219.60794,355.8703)"/>
<use data-text="I" xlink:href="#font_0_73" transform="matrix(15,0,0,-15,225.02294,355.8703)"/>
<use data-text="n" xlink:href="#font_0_110" transform="matrix(15,0,0,-15,229.44794,355.8703)"/>
<use data-text="s" xlink:href="#font_0_115" transform="matrix(15,0,0,-15,238.95795,355.8703)"/>
<use data-text="t" xlink:href="#font_0_116" transform="matrix(15,0,0,-15,246.77295,355.8703)"/>
<use data-text="r" xlink:href="#font_0_114" transform="matrix(15,0,0,-15,252.65294,355.8703)"/>
<use data-text="u" xlink:href="#font_0_117" transform="matrix(15,0,0,-15,258.81794,355.8703)"/>
<use data-text="c" xlink:href="#font_0_99" transform="matrix(15,0,0,-15,268.32795,355.8703)"/>
<use data-text="t" xlink:href="#font_0_116" transform="matrix(15,0,0,-15,276.57795,355.8703)"/>
<path transform="matrix(1,0,0,-1,0,395.65095)" stroke-width="3" stroke-linecap="square" stroke-linejoin="round" fill="none" stroke="#2c6e9b" d="M100.012928 23.015H115.012928 130.01293"/>
<use data-text="L" xlink:href="#font_0_76" transform="matrix(15,0,0,-15,142.01293,377.88594)"/>
<use data-text="l" xlink:href="#font_0_108" transform="matrix(15,0,0,-15,150.36792,377.88594)"/>
<use data-text="a" xlink:href="#font_0_97" transform="matrix(15,0,0,-15,154.53794,377.88594)"/>
<use data-text="m" xlink:href="#font_0_109" transform="matrix(15,0,0,-15,163.73293,377.88594)"/>
<use data-text="a" xlink:href="#font_0_97" transform="matrix(15,0,0,-15,178.34293,377.88594)"/>
<use data-text="-" xlink:href="#font_0_45" transform="matrix(15,0,0,-15,187.53794,377.88594)"/>
<use data-text="3" xlink:href="#font_0_51" transform="matrix(15,0,0,-15,192.95293,377.88594)"/>
<use data-text="." xlink:href="#font_0_46" transform="matrix(15,0,0,-15,202.49292,377.88594)"/>
<use data-text="1" xlink:href="#font_0_49" transform="matrix(15,0,0,-15,207.26293,377.88594)"/>
<use data-text="-" xlink:href="#font_0_45" transform="matrix(15,0,0,-15,216.80292,377.88594)"/>
<use data-text="8" xlink:href="#font_0_56" transform="matrix(15,0,0,-15,222.21793,377.88594)"/>
<use data-text="B" xlink:href="#font_0_66" transform="matrix(15,0,0,-15,231.75794,377.88594)"/>
<use data-text="-" xlink:href="#font_0_45" transform="matrix(15,0,0,-15,242.04793,377.88594)"/>
<use data-text="I" xlink:href="#font_0_73" transform="matrix(15,0,0,-15,247.46292,377.88594)"/>
<use data-text="n" xlink:href="#font_0_110" transform="matrix(15,0,0,-15,251.88794,377.88594)"/>
<use data-text="s" xlink:href="#font_0_115" transform="matrix(15,0,0,-15,261.39796,377.88594)"/>
<use data-text="t" xlink:href="#font_0_116" transform="matrix(15,0,0,-15,269.21296,377.88594)"/>
<use data-text="r" xlink:href="#font_0_114" transform="matrix(15,0,0,-15,275.09297,377.88594)"/>
<use data-text="u" xlink:href="#font_0_117" transform="matrix(15,0,0,-15,281.25794,377.88594)"/>
<use data-text="c" xlink:href="#font_0_99" transform="matrix(15,0,0,-15,290.76795,377.88594)"/>
<use data-text="t" xlink:href="#font_0_116" transform="matrix(15,0,0,-15,299.01795,377.88594)"/>
<path transform="matrix(1,0,0,-1,0,395.65095)" stroke-width="3" stroke-linecap="square" stroke-linejoin="round" fill="none" stroke="#555555" d="M364.5158 45.030626H379.5158 394.5158"/>
<use data-text="C" xlink:href="#font_0_67" transform="matrix(15,0,0,-15,406.5158,355.8703)"/>
<use data-text="r" xlink:href="#font_0_114" transform="matrix(15,0,0,-15,416.9858,355.8703)"/>
<use data-text="o" xlink:href="#font_0_111" transform="matrix(15,0,0,-15,422.8227,355.8703)"/>
<use data-text="s" xlink:href="#font_0_115" transform="matrix(15,0,0,-15,432.0027,355.8703)"/>
<use data-text="s" xlink:href="#font_0_115" transform="matrix(15,0,0,-15,439.8177,355.8703)"/>
<use data-text="-" xlink:href="#font_0_45" transform="matrix(15,0,0,-15,447.6327,355.8703)"/>
<use data-text="r" xlink:href="#font_0_114" transform="matrix(15,0,0,-15,453.04768,355.8703)"/>
<use data-text="i" xlink:href="#font_0_105" transform="matrix(15,0,0,-15,459.21269,355.8703)"/>
<use data-text="s" xlink:href="#font_0_115" transform="matrix(15,0,0,-15,463.3827,355.8703)"/>
<use data-text="k" xlink:href="#font_0_107" transform="matrix(15,0,0,-15,471.1977,355.8703)"/>
<path transform="matrix(1,0,0,-1,0,395.65095)" stroke-width="3" stroke-linecap="butt" stroke-dasharray="11.1,4.8" stroke-linejoin="round" fill="none" stroke="#555555" d="M364.5158 23.015H379.5158 394.5158"/>
<use data-text="S" xlink:href="#font_0_83" transform="matrix(15,0,0,-15,406.5158,377.88594)"/>
<use data-text="a" xlink:href="#font_0_97" transform="matrix(15,0,0,-15,416.0408,377.88594)"/>
<use data-text="m" xlink:href="#font_0_109" transform="matrix(15,0,0,-15,425.2358,377.88594)"/>
<use data-text="e" xlink:href="#font_0_101" transform="matrix(15,0,0,-15,439.84584,377.88594)"/>
<use data-text="-" xlink:href="#font_0_45" transform="matrix(15,0,0,-15,449.0708,377.88594)"/>
<use data-text="r" xlink:href="#font_0_114" transform="matrix(15,0,0,-15,454.4858,377.88594)"/>
<use data-text="i" xlink:href="#font_0_105" transform="matrix(15,0,0,-15,460.65083,377.88594)"/>
<use data-text="s" xlink:href="#font_0_115" transform="matrix(15,0,0,-15,464.8208,377.88594)"/>
<use data-text="k" xlink:href="#font_0_107" transform="matrix(15,0,0,-15,472.6358,377.88594)"/>
<use data-text=" " xlink:href="#font_0_32" transform="matrix(15,0,0,-15,481.3208,377.88594)"/>
<use data-text="c" xlink:href="#font_0_99" transform="matrix(15,0,0,-15,486.09083,377.88594)"/>
<use data-text="o" xlink:href="#font_0_111" transform="matrix(15,0,0,-15,494.34083,377.88594)"/>
<use data-text="n" xlink:href="#font_0_110" transform="matrix(15,0,0,-15,503.5208,377.88594)"/>
<use data-text="t" xlink:href="#font_0_116" transform="matrix(15,0,0,-15,513.0308,377.88594)"/>
<use data-text="r" xlink:href="#font_0_114" transform="matrix(15,0,0,-15,518.9108,377.88594)"/>
<use data-text="o" xlink:href="#font_0_111" transform="matrix(15,0,0,-15,524.7477,377.88594)"/>
<use data-text="l" xlink:href="#font_0_108" transform="matrix(15,0,0,-15,533.9277,377.88594)"/>
<path transform="matrix(1,0,0,-1,0,395.65095)" d="M641.95169 139.87381H1072.5244V361.0578H641.95169Z" fill="#ffffff"/>
<path transform="matrix(1,0,0,-1,0,395.65095)" d="M711.1822 139.87381V136.37381"/>
<path transform="matrix(1,0,0,-1,0,395.65095)" stroke-width=".8" stroke-linecap="butt" stroke-linejoin="round" fill="none" stroke="#000000" d="M711.1822 139.87381V136.37381"/>
<use data-text="Q" xlink:href="#font_0_81" transform="matrix(18,0,0,-18,652.34628,276.449)"/>
<use data-text="w" xlink:href="#font_0_119" transform="matrix(18,0,0,-18,666.51229,276.449)"/>
<use data-text="e" xlink:href="#font_0_101" transform="matrix(18,0,0,-18,681.23629,276.449)"/>
<use data-text="n" xlink:href="#font_0_110" transform="matrix(18,0,0,-18,692.3063,276.449)"/>
<use data-text="3" xlink:href="#font_0_51" transform="matrix(18,0,0,-18,703.71829,276.449)"/>
<use data-text="G" xlink:href="#font_0_71" transform="matrix(18,0,0,-18,715.16629,276.449)"/>
<use data-text="u" xlink:href="#font_0_117" transform="matrix(18,0,0,-18,729.1163,276.449)"/>
<use data-text="a" xlink:href="#font_0_97" transform="matrix(18,0,0,-18,740.52828,276.449)"/>
<use data-text="r" xlink:href="#font_0_114" transform="matrix(18,0,0,-18,751.56228,276.449)"/>
<use data-text="d" xlink:href="#font_0_100" transform="matrix(18,0,0,-18,758.64779,276.449)"/>
<use data-text="4" xlink:href="#font_0_52" transform="matrix(18,0,0,-18,699.28378,296.60527)"/>
<use data-text="B" xlink:href="#font_0_66" transform="matrix(18,0,0,-18,710.73178,296.60527)"/>
<path transform="matrix(1,0,0,-1,0,395.65095)" d="M857.23806 139.87381V136.37381"/>
<path transform="matrix(1,0,0,-1,0,395.65095)" stroke-width=".8" stroke-linecap="butt" stroke-linejoin="round" fill="none" stroke="#000000" d="M857.23806 139.87381V136.37381"/>
<use data-text="L" xlink:href="#font_0_76" transform="matrix(18,0,0,-18,796.7771,276.449)"/>
<use data-text="l" xlink:href="#font_0_108" transform="matrix(18,0,0,-18,806.8031,276.449)"/>
<use data-text="a" xlink:href="#font_0_97" transform="matrix(18,0,0,-18,811.8071,276.449)"/>
<use data-text="m" xlink:href="#font_0_109" transform="matrix(18,0,0,-18,822.8411,276.449)"/>
<use data-text="a" xlink:href="#font_0_97" transform="matrix(18,0,0,-18,840.3731,276.449)"/>
<use data-text="G" xlink:href="#font_0_71" transform="matrix(18,0,0,-18,851.4071,276.449)"/>
<use data-text="u" xlink:href="#font_0_117" transform="matrix(18,0,0,-18,865.3571,276.449)"/>
<use data-text="a" xlink:href="#font_0_97" transform="matrix(18,0,0,-18,876.7691,276.449)"/>
<use data-text="r" xlink:href="#font_0_114" transform="matrix(18,0,0,-18,887.8031,276.449)"/>
<use data-text="d" xlink:href="#font_0_100" transform="matrix(18,0,0,-18,894.8886,276.449)"/>
<use data-text="3" xlink:href="#font_0_51" transform="matrix(18,0,0,-18,906.3186,276.449)"/>
<use data-text="8" xlink:href="#font_0_56" transform="matrix(18,0,0,-18,845.3396,296.60527)"/>
<use data-text="B" xlink:href="#font_0_66" transform="matrix(18,0,0,-18,856.7876,296.60527)"/>
<path transform="matrix(1,0,0,-1,0,395.65095)" d="M1003.2939 139.87381V136.37381"/>
<path transform="matrix(1,0,0,-1,0,395.65095)" stroke-width=".8" stroke-linecap="butt" stroke-linejoin="round" fill="none" stroke="#000000" d="M1003.2939 139.87381V136.37381"/>
<use data-text="A" xlink:href="#font_0_65" transform="matrix(18,0,0,-18,957.2392,276.449)"/>
<use data-text="g" xlink:href="#font_0_103" transform="matrix(18,0,0,-18,969.5512,276.449)"/>
<use data-text="e" xlink:href="#font_0_101" transform="matrix(18,0,0,-18,980.9812,276.449)"/>
<use data-text="n" xlink:href="#font_0_110" transform="matrix(18,0,0,-18,992.0512,276.449)"/>
<use data-text="t" xlink:href="#font_0_116" transform="matrix(18,0,0,-18,1003.4632,276.449)"/>
<use data-text="D" xlink:href="#font_0_68" transform="matrix(18,0,0,-18,1010.51919,276.449)"/>
<use data-text="o" xlink:href="#font_0_111" transform="matrix(18,0,0,-18,1024.3792,276.449)"/>
<use data-text="G" xlink:href="#font_0_71" transform="matrix(18,0,0,-18,1035.3952,276.449)"/>
<use data-text="4" xlink:href="#font_0_52" transform="matrix(18,0,0,-18,991.39547,296.60527)"/>
<use data-text="B" xlink:href="#font_0_66" transform="matrix(18,0,0,-18,1002.84347,296.60527)"/>
<g clip-path="url(#clip_17)">
<path transform="matrix(1,0,0,-1,0,395.65095)" stroke-width=".8" stroke-linecap="square" stroke-linejoin="round" fill="none" stroke="#eeeeee" d="M641.95169 139.87381H1072.5244"/>
</g>
<path transform="matrix(1,0,0,-1,0,395.65095)" d="M641.95169 139.87381H638.45169"/>
<path transform="matrix(1,0,0,-1,0,395.65095)" stroke-width=".8" stroke-linecap="butt" stroke-linejoin="round" fill="none" stroke="#000000" d="M641.95169 139.87381H638.45169"/>
<use data-text="0" xlink:href="#font_0_48" transform="matrix(18,0,0,-18,606.32669,262.61308)"/>
<use data-text="." xlink:href="#font_0_46" transform="matrix(18,0,0,-18,617.77468,262.61308)"/>
<use data-text="4" xlink:href="#font_0_52" transform="matrix(18,0,0,-18,623.49868,262.61308)"/>
<g clip-path="url(#clip_18)">
<path transform="matrix(1,0,0,-1,0,395.65095)" stroke-width=".8" stroke-linecap="square" stroke-linejoin="round" fill="none" stroke="#eeeeee" d="M641.95169 176.73781H1072.5244"/>
</g>
<path transform="matrix(1,0,0,-1,0,395.65095)" d="M641.95169 176.73781H638.45169"/>
<path transform="matrix(1,0,0,-1,0,395.65095)" stroke-width=".8" stroke-linecap="butt" stroke-linejoin="round" fill="none" stroke="#000000" d="M641.95169 176.73781H638.45169"/>
<use data-text="0" xlink:href="#font_0_48" transform="matrix(18,0,0,-18,606.32669,225.74907)"/>
<use data-text="." xlink:href="#font_0_46" transform="matrix(18,0,0,-18,617.77468,225.74907)"/>
<use data-text="5" xlink:href="#font_0_53" transform="matrix(18,0,0,-18,623.49868,225.74907)"/>
<g clip-path="url(#clip_19)">
<path transform="matrix(1,0,0,-1,0,395.65095)" stroke-width=".8" stroke-linecap="square" stroke-linejoin="round" fill="none" stroke="#eeeeee" d="M641.95169 213.6018H1072.5244"/>
</g>
<path transform="matrix(1,0,0,-1,0,395.65095)" d="M641.95169 213.6018H638.45169"/>
<path transform="matrix(1,0,0,-1,0,395.65095)" stroke-width=".8" stroke-linecap="butt" stroke-linejoin="round" fill="none" stroke="#000000" d="M641.95169 213.6018H638.45169"/>
<use data-text="0" xlink:href="#font_0_48" transform="matrix(18,0,0,-18,606.32669,188.88507)"/>
<use data-text="." xlink:href="#font_0_46" transform="matrix(18,0,0,-18,617.77468,188.88507)"/>
<use data-text="6" xlink:href="#font_0_54" transform="matrix(18,0,0,-18,623.49868,188.88507)"/>
<g clip-path="url(#clip_20)">
<path transform="matrix(1,0,0,-1,0,395.65095)" stroke-width=".8" stroke-linecap="square" stroke-linejoin="round" fill="none" stroke="#eeeeee" d="M641.95169 250.4658H1072.5244"/>
</g>
<path transform="matrix(1,0,0,-1,0,395.65095)" d="M641.95169 250.4658H638.45169"/>
<path transform="matrix(1,0,0,-1,0,395.65095)" stroke-width=".8" stroke-linecap="butt" stroke-linejoin="round" fill="none" stroke="#000000" d="M641.95169 250.4658H638.45169"/>
<use data-text="0" xlink:href="#font_0_48" transform="matrix(18,0,0,-18,606.32669,152.02108)"/>
<use data-text="." xlink:href="#font_0_46" transform="matrix(18,0,0,-18,617.77468,152.02108)"/>
<use data-text="7" xlink:href="#font_0_55" transform="matrix(18,0,0,-18,623.49868,152.02108)"/>
<g clip-path="url(#clip_21)">
<path transform="matrix(1,0,0,-1,0,395.65095)" stroke-width=".8" stroke-linecap="square" stroke-linejoin="round" fill="none" stroke="#eeeeee" d="M641.95169 287.3298H1072.5244"/>
</g>
<path transform="matrix(1,0,0,-1,0,395.65095)" d="M641.95169 287.3298H638.45169"/>
<path transform="matrix(1,0,0,-1,0,395.65095)" stroke-width=".8" stroke-linecap="butt" stroke-linejoin="round" fill="none" stroke="#000000" d="M641.95169 287.3298H638.45169"/>
<use data-text="0" xlink:href="#font_0_48" transform="matrix(18,0,0,-18,606.32669,115.157077)"/>
<use data-text="." xlink:href="#font_0_46" transform="matrix(18,0,0,-18,617.77468,115.157077)"/>
<use data-text="8" xlink:href="#font_0_56" transform="matrix(18,0,0,-18,623.49868,115.157077)"/>
<g clip-path="url(#clip_22)">
<path transform="matrix(1,0,0,-1,0,395.65095)" stroke-width=".8" stroke-linecap="square" stroke-linejoin="round" fill="none" stroke="#eeeeee" d="M641.95169 324.19383H1072.5244"/>
</g>
<path transform="matrix(1,0,0,-1,0,395.65095)" d="M641.95169 324.19383H638.45169"/>
<path transform="matrix(1,0,0,-1,0,395.65095)" stroke-width=".8" stroke-linecap="butt" stroke-linejoin="round" fill="none" stroke="#000000" d="M641.95169 324.19383H638.45169"/>
<use data-text="0" xlink:href="#font_0_48" transform="matrix(18,0,0,-18,606.32669,78.29306)"/>
<use data-text="." xlink:href="#font_0_46" transform="matrix(18,0,0,-18,617.77468,78.29306)"/>
<use data-text="9" xlink:href="#font_0_57" transform="matrix(18,0,0,-18,623.49868,78.29306)"/>
<g clip-path="url(#clip_23)">
<path transform="matrix(1,0,0,-1,0,395.65095)" stroke-width=".8" stroke-linecap="square" stroke-linejoin="round" fill="none" stroke="#eeeeee" d="M641.95169 361.0578H1072.5244"/>
</g>
<path transform="matrix(1,0,0,-1,0,395.65095)" d="M641.95169 361.0578H638.45169"/>
<path transform="matrix(1,0,0,-1,0,395.65095)" stroke-width=".8" stroke-linecap="butt" stroke-linejoin="round" fill="none" stroke="#000000" d="M641.95169 361.0578H638.45169"/>
<use data-text="1" xlink:href="#font_0_49" transform="matrix(18,0,0,-18,606.32669,41.429079)"/>
<use data-text="." xlink:href="#font_0_46" transform="matrix(18,0,0,-18,617.77468,41.429079)"/>
<use data-text="0" xlink:href="#font_0_48" transform="matrix(18,0,0,-18,623.49868,41.429079)"/>
<use data-text="R" xlink:href="#font_0_82" transform="matrix(0,-21,-21,-0,597.95169,222.12264)"/>
<use data-text="a" xlink:href="#font_0_97" transform="matrix(0,-21,-21,-0,597.95169,207.98076)"/>
<use data-text="n" xlink:href="#font_0_110" transform="matrix(0,-21,-21,-0,597.95169,195.10776)"/>
<use data-text="k" xlink:href="#font_0_107" transform="matrix(0,-21,-21,-0,597.95169,181.79376)"/>
<use data-text=" " xlink:href="#font_0_32" transform="matrix(0,-21,-21,-0,597.95169,169.63477)"/>
<use data-text="a" xlink:href="#font_0_97" transform="matrix(0,-21,-21,-0,597.95169,162.95676)"/>
<use data-text="c" xlink:href="#font_0_99" transform="matrix(0,-21,-21,-0,597.95169,150.08376)"/>
<use data-text="c" xlink:href="#font_0_99" transform="matrix(0,-21,-21,-0,597.95169,138.53376)"/>
<use data-text="u" xlink:href="#font_0_117" transform="matrix(0,-21,-21,-0,597.95169,126.98375)"/>
<use data-text="r" xlink:href="#font_0_114" transform="matrix(0,-21,-21,-0,597.95169,113.66975)"/>
<use data-text="a" xlink:href="#font_0_97" transform="matrix(0,-21,-21,-0,597.95169,105.03874)"/>
<use data-text="c" xlink:href="#font_0_99" transform="matrix(0,-21,-21,-0,597.95169,92.16574)"/>
<use data-text="y" xlink:href="#font_0_121" transform="matrix(0,-21,-21,-0,597.95169,80.61574)"/>
<g clip-path="url(#clip_24)">
<path transform="matrix(1,0,0,-1,0,395.65095)" stroke-width="1.5" stroke-linecap="butt" stroke-dasharray="1.5,2.475" stroke-linejoin="round" fill="none" stroke="#999999" d="M641.95169 176.73781H1072.5244"/>
</g>
<path transform="matrix(1,0,0,-1,0,395.65095)" stroke-width=".8" stroke-linecap="square" stroke-miterlimit="10" stroke-linejoin="miter" fill="none" stroke="#000000" d="M641.95169 139.87381V361.0578"/>
<path transform="matrix(1,0,0,-1,0,395.65095)" stroke-width=".8" stroke-linecap="square" stroke-miterlimit="10" stroke-linejoin="miter" fill="none" stroke="#000000" d="M641.95169 139.87381H1072.5244"/>
<use data-text="c" xlink:href="#font_0_99" transform="matrix(16,0,0,-16,755.44448,214.48946)" fill="#888888"/>
<use data-text="h" xlink:href="#font_0_104" transform="matrix(16,0,0,-16,764.24447,214.48946)" fill="#888888"/>
<use data-text="a" xlink:href="#font_0_97" transform="matrix(16,0,0,-16,774.3884,214.48946)" fill="#888888"/>
<use data-text="n" xlink:href="#font_0_110" transform="matrix(16,0,0,-16,784.1965,214.48946)" fill="#888888"/>
<use data-text="c" xlink:href="#font_0_99" transform="matrix(16,0,0,-16,794.34048,214.48946)" fill="#888888"/>
<use data-text="e" xlink:href="#font_0_101" transform="matrix(16,0,0,-16,803.14047,214.48946)" fill="#888888"/>
<g clip-path="url(#clip_25)">
<g>
<path transform="matrix(1,0,0,-1,0,395.65095)" d="M661.5232-7.58219H711.1822V289.19145H661.5232Z" fill="#2c6e9b" fill-opacity=".82"/>
<path transform="matrix(1,0,0,-1,0,395.65095)" stroke-width="1" stroke-linecap="butt" stroke-miterlimit="10" stroke-linejoin="miter" fill="none" stroke="#ffffff" stroke-opacity=".82" d="M661.5232-7.58219H711.1822V289.19145H661.5232Z"/>
</g>
</g>
<g clip-path="url(#clip_26)">
<g>
<path transform="matrix(1,0,0,-1,0,395.65095)" d="M807.57907-7.58219H857.23806V326.73744H807.57907Z" fill="#2c6e9b" fill-opacity=".82"/>
<path transform="matrix(1,0,0,-1,0,395.65095)" stroke-width="1" stroke-linecap="butt" stroke-miterlimit="10" stroke-linejoin="miter" fill="none" stroke="#ffffff" stroke-opacity=".82" d="M807.57907-7.58219H857.23806V326.73744H807.57907Z"/>
</g>
</g>
<g clip-path="url(#clip_27)">
<g>
<path transform="matrix(1,0,0,-1,0,395.65095)" d="M953.6349-7.58219H1003.2939V291.73506H953.6349Z" fill="#2c6e9b" fill-opacity=".82"/>
<path transform="matrix(1,0,0,-1,0,395.65095)" stroke-width="1" stroke-linecap="butt" stroke-miterlimit="10" stroke-linejoin="miter" fill="none" stroke="#ffffff" stroke-opacity=".82" d="M953.6349-7.58219H1003.2939V291.73506H953.6349Z"/>
</g>
</g>
<g clip-path="url(#clip_28)">
<g>
<path transform="matrix(1,0,0,-1,0,395.65095)" d="M711.1822-7.58219H760.8412V178.35984H711.1822Z" fill="#b5341b" fill-opacity=".9"/>
<path transform="matrix(1,0,0,-1,0,395.65095)" stroke-width="1" stroke-linecap="butt" stroke-miterlimit="10" stroke-linejoin="miter" fill="none" stroke="#ffffff" stroke-opacity=".9" d="M711.1822-7.58219H760.8412V178.35984H711.1822Z"/>
</g>
</g>
<g clip-path="url(#clip_29)">
<g>
<path transform="matrix(1,0,0,-1,0,395.65095)" d="M857.23806-7.58219H906.89706V211.5743H857.23806Z" fill="#b5341b" fill-opacity=".9"/>
<path transform="matrix(1,0,0,-1,0,395.65095)" stroke-width="1" stroke-linecap="butt" stroke-miterlimit="10" stroke-linejoin="miter" fill="none" stroke="#ffffff" stroke-opacity=".9" d="M857.23806-7.58219H906.89706V211.5743H857.23806Z"/>
</g>
</g>
<g clip-path="url(#clip_30)">
<g>
<path transform="matrix(1,0,0,-1,0,395.65095)" d="M1003.2939-7.58219H1052.9529V237.01045H1003.2939Z" fill="#b5341b" fill-opacity=".9"/>
<path transform="matrix(1,0,0,-1,0,395.65095)" stroke-width="1" stroke-linecap="butt" stroke-miterlimit="10" stroke-linejoin="miter" fill="none" stroke="#ffffff" stroke-opacity=".9" d="M1003.2939-7.58219H1052.9529V237.01045H1003.2939Z"/>
</g>
</g>
<use data-text="(" xlink:href="#font_0_40" transform="matrix(21,0,0,-21,744.6521,24.59314)"/>
<use data-text="b" xlink:href="#font_0_98" transform="matrix(21,0,0,-21,752.8421,24.59314)"/>
<use data-text=")" xlink:href="#font_0_41" transform="matrix(21,0,0,-21,766.1771,24.59314)"/>
<use data-text=" " xlink:href="#font_0_32" transform="matrix(21,0,0,-21,774.3671,24.59314)"/>
<use data-text="C" xlink:href="#font_0_67" transform="matrix(21,0,0,-21,781.0451,24.59314)"/>
<use data-text="r" xlink:href="#font_0_114" transform="matrix(21,0,0,-21,795.7031,24.59314)"/>
<use data-text="o" xlink:href="#font_0_111" transform="matrix(21,0,0,-21,803.881,24.59314)"/>
<use data-text="s" xlink:href="#font_0_115" transform="matrix(21,0,0,-21,816.733,24.59314)"/>
<use data-text="s" xlink:href="#font_0_115" transform="matrix(21,0,0,-21,827.67398,24.59314)"/>
<use data-text="-" xlink:href="#font_0_45" transform="matrix(21,0,0,-21,838.615,24.59314)"/>
<use data-text="r" xlink:href="#font_0_114" transform="matrix(21,0,0,-21,846.196,24.59314)"/>
<use data-text="i" xlink:href="#font_0_105" transform="matrix(21,0,0,-21,854.82699,24.59314)"/>
<use data-text="s" xlink:href="#font_0_115" transform="matrix(21,0,0,-21,860.665,24.59314)"/>
<use data-text="k" xlink:href="#font_0_107" transform="matrix(21,0,0,-21,871.60598,24.59314)"/>
<use data-text=" " xlink:href="#font_0_32" transform="matrix(21,0,0,-21,883.765,24.59314)"/>
<use data-text="r" xlink:href="#font_0_114" transform="matrix(21,0,0,-21,890.443,24.59314)"/>
<use data-text="a" xlink:href="#font_0_97" transform="matrix(21,0,0,-21,899.074,24.59314)"/>
<use data-text="n" xlink:href="#font_0_110" transform="matrix(21,0,0,-21,911.94699,24.59314)"/>
<use data-text="k" xlink:href="#font_0_107" transform="matrix(21,0,0,-21,925.261,24.59314)"/>
<use data-text="i" xlink:href="#font_0_105" transform="matrix(21,0,0,-21,937.42,24.59314)"/>
<use data-text="n" xlink:href="#font_0_110" transform="matrix(21,0,0,-21,943.25796,24.59314)"/>
<use data-text="g" xlink:href="#font_0_103" transform="matrix(21,0,0,-21,956.57199,24.59314)"/>
<g clip-path="url(#clip_31)">
<path transform="matrix(1,0,0,-1,0,395.65095)" stroke-width="1.5" stroke-linecap="butt" stroke-linejoin="round" fill="none" stroke="#000000" d="M686.35269 275.2013V303.18159"/>
<path transform="matrix(1,0,0,-1,0,395.65095)" stroke-width="1.5" stroke-linecap="butt" stroke-linejoin="round" fill="none" stroke="#000000" d="M832.4085 316.92759V336.54728"/>
<path transform="matrix(1,0,0,-1,0,395.65095)" stroke-width="1.5" stroke-linecap="butt" stroke-linejoin="round" fill="none" stroke="#000000" d="M978.4644 277.95207V305.51805"/>
</g>
<g clip-path="url(#clip_32)">
<path transform="matrix(1,0,0,-1,0,395.65095)" d="M690.35269 275.2013H682.35269"/>
<path transform="matrix(1,0,0,-1,0,395.65095)" stroke-width="1" stroke-linecap="butt" stroke-linejoin="round" fill="none" stroke="#000000" d="M690.35269 275.2013H682.35269"/>
<path transform="matrix(1,0,0,-1,0,395.65095)" d="M836.4085 316.92759H828.4085"/>
<path transform="matrix(1,0,0,-1,0,395.65095)" stroke-width="1" stroke-linecap="butt" stroke-linejoin="round" fill="none" stroke="#000000" d="M836.4085 316.92759H828.4085"/>
<path transform="matrix(1,0,0,-1,0,395.65095)" d="M982.4644 277.95207H974.4644"/>
<path transform="matrix(1,0,0,-1,0,395.65095)" stroke-width="1" stroke-linecap="butt" stroke-linejoin="round" fill="none" stroke="#000000" d="M982.4644 277.95207H974.4644"/>
</g>
<g clip-path="url(#clip_33)">
<path transform="matrix(1,0,0,-1,0,395.65095)" d="M690.35269 303.18159H682.35269"/>
<path transform="matrix(1,0,0,-1,0,395.65095)" stroke-width="1" stroke-linecap="butt" stroke-linejoin="round" fill="none" stroke="#000000" d="M690.35269 303.18159H682.35269"/>
<path transform="matrix(1,0,0,-1,0,395.65095)" d="M836.4085 336.54728H828.4085"/>
<path transform="matrix(1,0,0,-1,0,395.65095)" stroke-width="1" stroke-linecap="butt" stroke-linejoin="round" fill="none" stroke="#000000" d="M836.4085 336.54728H828.4085"/>
<path transform="matrix(1,0,0,-1,0,395.65095)" d="M982.4644 305.51805H974.4644"/>
<path transform="matrix(1,0,0,-1,0,395.65095)" stroke-width="1" stroke-linecap="butt" stroke-linejoin="round" fill="none" stroke="#000000" d="M982.4644 305.51805H974.4644"/>
</g>
<g clip-path="url(#clip_34)">
<path transform="matrix(1,0,0,-1,0,395.65095)" stroke-width="1.5" stroke-linecap="butt" stroke-linejoin="round" fill="none" stroke="#000000" d="M736.01168 160.8195V195.90015"/>
<path transform="matrix(1,0,0,-1,0,395.65095)" stroke-width="1.5" stroke-linecap="butt" stroke-linejoin="round" fill="none" stroke="#000000" d="M882.0675 194.38419V228.76439"/>
<path transform="matrix(1,0,0,-1,0,395.65095)" stroke-width="1.5" stroke-linecap="butt" stroke-linejoin="round" fill="none" stroke="#000000" d="M1028.1234 220.46035V253.56056"/>
</g>
<g clip-path="url(#clip_35)">
<path transform="matrix(1,0,0,-1,0,395.65095)" d="M740.01168 160.8195H732.01168"/>
<path transform="matrix(1,0,0,-1,0,395.65095)" stroke-width="1" stroke-linecap="butt" stroke-linejoin="round" fill="none" stroke="#000000" d="M740.01168 160.8195H732.01168"/>
<path transform="matrix(1,0,0,-1,0,395.65095)" d="M886.0675 194.38419H878.0675"/>
<path transform="matrix(1,0,0,-1,0,395.65095)" stroke-width="1" stroke-linecap="butt" stroke-linejoin="round" fill="none" stroke="#000000" d="M886.0675 194.38419H878.0675"/>
<path transform="matrix(1,0,0,-1,0,395.65095)" d="M1032.1234 220.46035H1024.1234"/>
<path transform="matrix(1,0,0,-1,0,395.65095)" stroke-width="1" stroke-linecap="butt" stroke-linejoin="round" fill="none" stroke="#000000" d="M1032.1234 220.46035H1024.1234"/>
</g>
<g clip-path="url(#clip_36)">
<path transform="matrix(1,0,0,-1,0,395.65095)" d="M740.01168 195.90015H732.01168"/>
<path transform="matrix(1,0,0,-1,0,395.65095)" stroke-width="1" stroke-linecap="butt" stroke-linejoin="round" fill="none" stroke="#000000" d="M740.01168 195.90015H732.01168"/>
<path transform="matrix(1,0,0,-1,0,395.65095)" d="M886.0675 228.76439H878.0675"/>
<path transform="matrix(1,0,0,-1,0,395.65095)" stroke-width="1" stroke-linecap="butt" stroke-linejoin="round" fill="none" stroke="#000000" d="M886.0675 228.76439H878.0675"/>
<path transform="matrix(1,0,0,-1,0,395.65095)" d="M1032.1234 253.56056H1024.1234"/>
<path transform="matrix(1,0,0,-1,0,395.65095)" stroke-width="1" stroke-linecap="butt" stroke-linejoin="round" fill="none" stroke="#000000" d="M1032.1234 253.56056H1024.1234"/>
</g>
<g>
<path transform="matrix(1,0,0,-1,0,395.65095)" d="M726.8818 51.38604H758.8818V62.58604H726.8818Z" fill="#2c6e9b" fill-opacity=".82"/>
<path transform="matrix(1,0,0,-1,0,395.65095)" stroke-width="1" stroke-linecap="butt" stroke-miterlimit="10" stroke-linejoin="miter" fill="none" stroke="#ffffff" stroke-opacity=".82" d="M726.8818 51.38604H758.8818V62.58604H726.8818Z"/>
</g>
<use data-text="S" xlink:href="#font_0_83" transform="matrix(16,0,0,-16,766.8818,344.2649)"/>
<use data-text="a" xlink:href="#font_0_97" transform="matrix(16,0,0,-16,777.04177,344.2649)"/>
<use data-text="m" xlink:href="#font_0_109" transform="matrix(16,0,0,-16,786.8498,344.2649)"/>
<use data-text="e" xlink:href="#font_0_101" transform="matrix(16,0,0,-16,802.4338,344.2649)"/>
<use data-text=" " xlink:href="#font_0_32" transform="matrix(16,0,0,-16,812.2738,344.2649)"/>
<use data-text="r" xlink:href="#font_0_114" transform="matrix(16,0,0,-16,817.36178,344.2649)"/>
<use data-text="i" xlink:href="#font_0_105" transform="matrix(16,0,0,-16,823.9378,344.2649)"/>
<use data-text="s" xlink:href="#font_0_115" transform="matrix(16,0,0,-16,828.3858,344.2649)"/>
<use data-text="k" xlink:href="#font_0_107" transform="matrix(16,0,0,-16,836.7218,344.2649)"/>
<g>
<path transform="matrix(1,0,0,-1,0,395.65095)" d="M868.4224 51.38604H900.4224V62.58604H868.4224Z" fill="#b5341b" fill-opacity=".9"/>
<path transform="matrix(1,0,0,-1,0,395.65095)" stroke-width="1" stroke-linecap="butt" stroke-miterlimit="10" stroke-linejoin="miter" fill="none" stroke="#ffffff" stroke-opacity=".9" d="M868.4224 51.38604H900.4224V62.58604H868.4224Z"/>
</g>
<use data-text="O" xlink:href="#font_0_79" transform="matrix(16,0,0,-16,908.4224,344.2649)"/>
<use data-text="t" xlink:href="#font_0_116" transform="matrix(16,0,0,-16,921.0144,344.2649)"/>
<use data-text="h" xlink:href="#font_0_104" transform="matrix(16,0,0,-16,927.28646,344.2649)"/>
<use data-text="e" xlink:href="#font_0_101" transform="matrix(16,0,0,-16,937.4304,344.2649)"/>
<use data-text="r" xlink:href="#font_0_114" transform="matrix(16,0,0,-16,947.27047,344.2649)"/>
<use data-text=" " xlink:href="#font_0_32" transform="matrix(16,0,0,-16,953.84646,344.2649)"/>
<use data-text="r" xlink:href="#font_0_114" transform="matrix(16,0,0,-16,958.93447,344.2649)"/>
<use data-text="i" xlink:href="#font_0_105" transform="matrix(16,0,0,-16,965.51046,344.2649)"/>
<use data-text="s" xlink:href="#font_0_115" transform="matrix(16,0,0,-16,969.95846,344.2649)"/>
<use data-text="k" xlink:href="#font_0_107" transform="matrix(16,0,0,-16,978.29446,344.2649)"/>
</svg>
